<svg width="100" height="100" viewBox="0 0 100 100" fill="none" xmlns="http://www.w3.org/2000/svg">
<rect width="100" height="100" fill="#3454D1"/>
<path d="M76 43.5C76 46.98 75.3146 50.426 73.9828 53.6411C72.6511 56.8562 70.6991 59.7776 68.2383 62.2383C65.7776 64.6991 62.8562 66.6511 59.6411 67.9828C56.426 69.3146 52.98 70 49.5 70C46.02 70 42.574 69.3146 39.3589 67.9828C36.1438 66.6511 33.2224 64.6991 30.7617 62.2383C28.3009 59.7776 26.3489 56.8562 25.0172 53.6411C23.6854 50.426 23 46.98 23 43.5L33.1602 43.5C33.1602 45.6458 33.5829 47.7705 34.404 49.753C35.2252 51.7354 36.4288 53.5367 37.946 55.054C39.4633 56.5712 41.2646 57.7748 43.247 58.596C45.2295 59.4171 47.3542 59.8398 49.5 59.8398C51.6458 59.8398 53.7705 59.4171 55.753 58.596C57.7354 57.7748 59.5367 56.5712 61.054 55.054C62.5712 53.5367 63.7748 51.7354 64.596 49.753C65.4171 47.7705 65.8398 45.6458 65.8398 43.5H76Z" fill="#FEFEFE"/>
</svg>
